<?xml version="1.0" encoding="utf-8"?>
<!-- Generator: Adobe Illustrator 21.1.0, SVG Export Plug-In . SVG Version: 6.00 Build 0)  -->
<svg version="1.1" id="Layer_1" xmlns="http://www.w3.org/2000/svg" xmlns:xlink="http://www.w3.org/1999/xlink" x="0px" y="0px"
	 viewBox="0 0 30 17" style="enable-background:new 0 0 30 17;" xml:space="preserve">
<style type="text/css">
	.st0{fill:#7A8760;}
	.st1{fill:#5E6D45;}
	.st2{fill:#7F915D;}
	.st3{fill:#383D31;}
	.st4{fill:#C0A35A;}
	.st5{fill:#879B5C;}
	.st6{fill:#1D2D39;}
	.st7{fill:#9A8875;}
	.st8{fill:#EAEAFD;}
	.st9{fill:#746A6D;}
	.st10{fill:#92302C;}
	.st11{fill:#57151D;}
	.st12{fill:#FEF8F9;}
	.st13{fill:#396B77;}
	.st14{fill:#292E38;}
	.st15{fill:#4F625A;}
	.st16{fill:#FAFEFE;}
	.st17{fill:#11161C;}
	.st18{fill:#3A4C4C;}
	.st19{fill:#131318;}
	.st20{fill:#5A6255;}
	.st21{fill:#AFAFBD;}
	.st22{fill:#ECE9F1;}
	.st23{fill:#A59AAC;}
	.st24{fill:#F7F9F9;}
	.st25{fill:#E2DDC7;}
	.st26{fill:#B0D3EA;}
</style>
<path class="st0" d="M4.5,14.3l-0.4,0.2l-0.5-0.1l-0.5,0.2l-0.7,0.2l-0.4-0.1L1.2,14l-0.4-0.4c0,0-0.3-0.3,0-0.5s0.4-0.5,0.4-0.5
	l-0.7-0.9c0.1-0.3,0.3-0.6,0.3-0.6L1,10.8L1,10.3L0.9,9.9C1,9.6,1.3,9.3,1.3,9.3l0.4-0.2l0.3-0.6L2,8.1L1.9,7.4L1.4,6.6l0.2-1.1
	L2.4,5l-0.2-1c0,0-0.2-0.9,0-1s1.1-0.7,1.1-0.7l0.5-0.5l0.5-0.4l0.5-0.5c0,0,1.2-0.1,1.5-0.1c0.3,0,0.1,0.3,0.3,0s0.4-0.6,0.4-0.6
	s1.2-0.4,1.7-0.1s0.9,0.7,0.9,0.7l0.7-0.2l0.6-0.1c0.3,0.3,0.6,0.8,0.6,0.8L12,1.1c0.8-0.1,1.2-0.2,1.2,0.1s0.7,0.6,0.9,0.6
	s0.7,0.1,0.7,0.1l0.7-0.3c0,0,1-0.2,1.3-0.1c0.3,0.1,0.7,0.3,1,0.2c0.3-0.1,1.1,0.1,1.1,0.1s0.3,0.1,0.4,0c0.2-0.1,0.4-0.6,0.9-0.3
	c0.5,0.3,1.4,0.9,1.4,0.9S22,1.9,22.1,2c0.2,0.1,0.8,0.4,0.9,0.3c0.2-0.1-0.3-0.3,0.2-0.1c0.5,0.2,1.2,0.7,1.2,0.7
	c0.2,0.1,1.1-0.3,1.1-0.3c0.5,0.4,1.2,0.9,1.2,1c0,0.2,0,0.2,0,0.2L27.4,4c0.1,0.3,0.3,0.6,0.3,0.6C28,4.8,27.9,4.6,28,4.8
	c0.1,0.3,0-0.1,0.1,0.3c0.1,0.4,0.7,0.5,0.9,0.7S29.2,6,29.2,6l0,0l0.5,0.7L30,7.2l-0.4,0.5v1.2L30,9.7l-0.5,0.2l0.2,0.7l0.1,0.4
	c-0.4,0.4-0.4,0.4-0.4,0.4L29,11.8l-0.3,0.6l-0.5,0.2C27.7,13,27,12,27,12l-0.2,0.4l-0.6,0.8l-1-0.3l-0.7-0.2l-0.8,0.5l-2.4-0.5
	l-2.1,0.9l-3.2,0.4l-3.6,0.5L11.2,15l-1.7-0.2l-1.2-0.3c-0.4,0.1-1,0.1-1,0.1l-0.9-0.2C6,14.6,6,14.6,6,14.6l-1.3,0.1L4.5,14.3z"/>
<path class="st1" d="M2.2,5.9l1.8,0.1c0,0,0.8,0.5,1,0.6c0.2,0.2,0.7,0.7,0.9,0.8c0.3,0.1,0.9,0.4,0.9,0.4l0.4,0.8
	c0.4,0.5,1,0.9,1,0.9L8.5,10l0.2,0.5l0.3,1L9.1,12l0.5,0.4L9.8,13c0,0-0.1,0.4-0.2,0.6c-0.1,0.3-0.2,0.6-0.2,0.6l-0.9,0.5l-0.8,0.1
	H6.4l-1,0.1l-1.6-0.2H2.4L2,14.9L0.8,13l-0.5-0.5l0.1-0.4L0,11l0.2-0.7l0.3-0.5V8.9l0.2-0.8L1,7.6l0.2-0.7l0.5-0.7L2.2,5.9z"/>
<path class="st2" d="M4,3.7l0.2-0.9l0.5-1.4c0.4-0.3,1-0.3,1-0.3l0.7,0.2c0,0,0.3,0.4,0.6,0.7s1.1,1,1.1,1l0.9,1l0.5,1.2L9.3,6.3
	l1.1,0.9l-0.2,0.5L9.8,8.1L8.9,8.4H7.5L7,7.1L5.1,5.3L4.4,5L4.3,4.5L4,3.7z"/>
<path class="st2" d="M7.6,4.6L7.6,3.9l0.3-1.4v-1c0,0,0.5-0.4,0.6-0.4c0.2-0.1,0.9-0.2,0.9-0.2s0.1-0.3,0.5-0.2s0.7,0.2,0.9,0.4
	s1,0.7,1,0.7l1.6,0.4h0.6l0.6,0.3l1.2,0.9l1.2-0.1l0.5,0.5l0.4,0.7L18,4.9l0.2,0.6L17.7,6L16.6,6l-3.7-0.2l-1.8,0.4L9.7,5.9L8.4,5.5
	L7.6,4.6z"/>
<path class="st3" d="M12.1,9.1l-0.8,0.1c0,0-0.5,0.1-0.7,0.2C10.4,9.4,10,9.6,10,9.6L8.8,10l-1-0.1L7.3,9.5l-1.8-1L5,8.6L4.7,9.3
	l0.8,1.2v0.7l-0.8,0.1l-1-0.1c-0.3,0.1-0.7,0.7-0.7,0.9c-0.1,0.2-0.5,0.7-0.5,0.7l0.3,0.6l0.6,0.4L4.1,14l2.3,0.3l1.4,0.1l1.8-0.5
	l1.6-0.2l0.9-0.1l0.7-0.4l0.3-1.4L12.1,9.1z"/>
<polygon class="st4" points="18.1,3.2 17.2,3.5 17,4 17.3,4 17.7,3.9 18.1,4 18.5,4.1 19,3.5 "/>
<polygon class="st4" points="14.1,2.2 13.2,2.5 13,3 13.3,3 13.7,2.9 14.1,3 14.5,3.1 15,2.5 "/>
<polygon class="st4" points="9.8,2.9 8.9,3.1 8.7,3.7 9,3.7 9.4,3.6 9.8,3.7 10.2,3.8 10.7,3.2 "/>
<path class="st5" d="M25,10.5c0,0,0.7-0.6,0.9-0.7c0.2-0.1,1-0.5,1-0.5l0.6-0.1l0.4-0.4l0.6-0.8l0.1-0.5l-0.4-1.2l-0.6-0.8l-1.1-1.2
	l-0.7-0.8l-0.9-0.5l-0.7-0.3l-1.2-0.4l-1.5-0.2l-0.6,0.3l-0.7,0.6l-1,0.7L18,5.1l0.2,1.8l0.8,1l1.7,1.6l2.6,0.9L25,10.5z"/>
<g>
	<polygon class="st6" points="20.3,13.3 21.9,13.4 24.6,13.6 24.6,14.4 23.2,14.8 22.2,15.2 21.4,15.6 20.7,16.1 20.4,16.3 	"/>
	<polygon class="st7" points="12.6,13.3 12.5,16.4 13.9,16.4 13.9,13.1 	"/>
	<polygon class="st7" points="16.8,12.7 16.8,16.6 17.8,16.7 20.4,16.2 20.5,13.2 17.6,12.7 	"/>
	<polygon class="st8" points="16.8,12.9 16.8,16.6 13.8,16.5 13.8,13.2 	"/>
	<polygon points="15.3,13.3 16.7,13.2 16.7,16.3 15.3,16.3 	"/>
	<polygon points="15.2,13.3 15.2,16.3 14,16.3 14,13.4 	"/>
	<polygon class="st9" points="12.6,13.3 12.5,16.3 10,16.2 10.1,13.4 	"/>
	<polygon class="st7" points="9.7,13.5 10.1,13.5 10.1,16.2 9.5,16.2 	"/>
</g>
<g>
	<polygon class="st10" points="9.7,12.6 13.1,4.6 17.6,12.6 9.7,12.8 	"/>
	<polygon class="st10" points="17.3,5.9 21.6,12.7 21.3,6.5 20.9,6.3 	"/>
	<polygon class="st11" points="21.3,6.6 24.3,8.5 24.6,13.4 21.5,13.2 	"/>
	<polygon class="st12" points="11.3,12.8 11.4,10.1 15.1,9.4 15.1,12.5 	"/>
	<polygon class="st13" points="11.6,10.3 12.6,10.1 12.5,12.6 11.5,12.7 	"/>
	<polygon points="12.7,10 12.6,12.6 13,12.5 13.1,9.9 	"/>
	<polygon class="st14" points="13.2,10 13.7,9.9 13.7,12.5 13.1,12.5 	"/>
	<polygon class="st15" points="13.9,9.8 14.3,9.7 14.3,12.4 13.8,12.5 	"/>
	<polygon class="st15" points="14.4,9.7 15,9.6 14.9,12.5 14.3,12.5 	"/>
	<polygon class="st16" points="12.4,6.9 12.3,7.7 14.2,7.2 14.1,6.3 	"/>
	<polygon class="st17" points="12.4,7 12.8,6.9 12.8,7.6 12.4,7.7 	"/>
	<polygon class="st18" points="12.9,6.9 12.8,7.5 13.2,7.4 13.2,6.7 	"/>
	<polygon class="st19" points="13.3,6.7 13.7,6.6 13.7,7.3 13.3,7.4 	"/>
	<polygon class="st20" points="13.8,6.5 13.8,7.2 14.1,7.1 14.1,6.4 	"/>
	<polygon class="st21" points="22.7,7.6 22.8,9.6 23.2,9.6 23.1,7.9 	"/>
	<polygon class="st21" points="22.2,10.5 22.8,10.7 22.9,13.1 22.3,13.2 	"/>
	<polygon class="st21" points="23.7,11.1 23.7,12.2 24.1,12.3 24,11.2 	"/>
	<polygon class="st21" points="21.6,10.3 21.6,11.6 22.2,11.8 22.1,10.4 	"/>
</g>
<polygon class="st22" points="16.9,5.6 21.6,6.1 24.9,8.3 24.9,8.6 24.3,8.6 21.3,6.5 20.9,6.3 17.1,5.9 "/>
<g>
	<polygon class="st23" points="12.4,3.5 9,12.9 9.7,12.9 13,4.7 	"/>
	<polygon class="st24" points="9.6,11.8 9.8,11.6 9.8,11.5 9.9,11.4 9.9,11.2 9.9,11 10,10.8 10.1,10.7 10.1,10.6 10.1,10.5 
		10.2,10.5 10.2,10.3 10.2,10.2 10.3,10.1 10.4,10 10.4,9.8 10.4,9.7 10.5,9.6 10.5,9.5 10.6,9.3 10.6,9.2 10.6,9 10.7,9 10.7,8.9 
		10.7,8.7 10.8,8.4 10.9,8.2 10.9,8.2 11,8.1 11,8.1 11,7.9 11,7.8 11.1,7.6 11.1,7.5 11.2,7.4 11.3,7.3 11.3,7.2 11.4,7 11.4,6.9 
		11.4,6.8 11.4,6.7 11.5,6.6 11.6,6.5 11.5,6.3 11.6,6.3 11.7,6.1 11.7,6 11.7,5.9 11.7,5.8 11.8,5.6 11.9,5.5 12,5.4 11.9,5.3 
		12,5.3 12,5.1 12,4.9 12.1,4.8 12.2,4.7 12.2,4.6 12.2,4.6 12.2,4.4 12.2,4.3 12.3,4.2 12.4,4 12.5,4 12.6,4.1 12.6,4.2 12.6,4.3 
		12.7,4.4 12.7,4.4 12.8,4.5 12.9,4.5 12.9,4.7 12.9,4.8 12.9,4.9 13,5 13.1,5 13.1,5.1 13.2,5.1 13.2,5.2 13.3,5.2 13.3,5.3 
		13.3,5.4 13.4,5.5 13.4,5.6 13.4,5.7 13.5,5.7 13.6,5.8 13.6,5.9 13.6,6 13.7,6.2 13.8,6.3 13.8,6.4 13.8,6.4 14,6.5 14.1,6.7 
		14.1,6.7 14.2,6.8 14.2,6.9 14.2,7.1 14.4,7.1 14.4,7.3 14.5,7.4 14.5,7.5 14.5,7.6 14.5,7.7 14.6,7.8 14.7,7.8 14.8,8 14.8,8.2 
		14.9,8.3 15,8.4 15.1,8.5 15.1,8.7 15.1,8.8 15.2,8.8 15.3,8.9 15.4,9 15.4,9.1 15.4,9.2 15.4,9.3 15.5,9.3 15.6,9.4 15.6,9.5 
		15.7,9.6 15.8,9.7 15.9,9.8 15.9,9.9 16,10.1 16,10.2 16,10.3 16.1,10.3 16.1,10.4 16.2,10.4 16.2,10.6 16.3,10.9 16.5,11.1 
		16.6,11.2 16.7,11.3 16.7,11.4 16.7,11.5 16.8,11.6 16.9,11.7 17,12 17.1,12.1 17.1,12.2 17.1,12.3 17.3,12.4 17.3,12.4 17.2,12.5 
		17.4,12.7 17.5,12.6 17.6,12.5 17.6,12.4 14.1,6.2 12.4,3.3 9.5,11.6 	"/>
	<polygon class="st25" points="12.3,3.3 17.7,12.7 21.9,13.3 17.2,5.9 16.9,5.6 	"/>
</g>
<g>
	<polygon class="st26" points="6.8,12 6.6,16.4 6.8,16.4 7,12 	"/>
	<polygon class="st26" points="9.9,11.5 9.7,16.6 9.9,16.5 10.1,11.5 	"/>
	<polygon class="st26" points="13.8,10.9 13.8,17 14,17 14.1,10.9 	"/>
	<polygon class="st26" points="6.8,13.1 13.9,12.3 16.9,12.6 16.8,12.9 9.5,13.5 6.8,13.3 	"/>
	<polygon class="st26" points="6.8,11.9 6.8,12.1 14,10.9 16.6,11.3 16.4,11 14,10.6 	"/>
	<polygon class="st26" points="8.4,11.7 8.4,13.1 8.6,13 8.6,11.7 	"/>
	<polygon class="st26" points="11.7,11.2 11.7,12.8 11.9,12.7 11.9,11.1 	"/>
	<polygon class="st26" points="6.9,11.9 9.4,12.1 9.4,12.3 6.9,12.1 	"/>
	<polygon class="st26" points="8.4,11.7 6.9,13 6.9,13.2 8.5,11.8 	"/>
	<polygon class="st26" points="7,12 8.4,13 8.4,12.7 7.1,12 	"/>
	<polygon class="st26" points="8.5,13 10,11.6 9.9,11.5 8.5,12.8 	"/>
	<polygon class="st26" points="10,11.5 11.8,12.6 13.9,10.9 13.8,10.9 11.8,12.5 10.1,11.4 	"/>
	<polygon class="st26" points="10,12.7 11.7,11.2 11.9,11.1 13.9,12.2 13.9,12.4 11.8,11.2 9.9,12.9 	"/>
	<polygon class="st26" points="8.5,11.7 10,12.9 10,12.7 8.7,11.7 	"/>
	<polygon class="st26" points="14,10.8 16.8,12.6 16.8,12.5 14.3,10.8 	"/>
	<polygon class="st26" points="14,12.2 16.6,11.3 16.6,11.3 14,12.4 	"/>
	<polygon class="st26" points="9.9,15 13.8,15 13.8,15.3 9.8,15.3 	"/>
	<polygon class="st26" points="11.6,15.2 11.5,16.8 11.7,16.8 11.8,15.2 	"/>
	<polygon class="st26" points="9.8,16.5 13.9,16.8 13.9,16.9 9.7,16.6 	"/>
	<polygon class="st26" points="9.8,16.4 11.7,15.1 13.9,16.7 13.8,16.9 11.7,15.3 9.8,16.5 	"/>
	<polygon class="st26" points="9.8,15.3 11.6,16.6 13.8,15.3 13.7,15.2 11.6,16.5 10,15.2 	"/>
</g>
<g>
	<polygon class="st26" points="22.1,11.9 19.4,14.9 19.6,14.9 22.2,11.9 	"/>
	<polygon class="st26" points="23.2,11.8 20.7,15 20.9,15 23.4,11.9 25.2,12.5 25.2,12.3 23.4,11.8 	"/>
	<polygon class="st26" points="23.4,13.1 25.2,13.5 25.2,13.7 23.5,13.4 	"/>
	<polygon class="st26" points="23.2,8.3 23.5,15.3 23.6,15.3 23.4,8.3 	"/>
	<polygon class="st26" points="24.1,8.8 24.3,15 24.5,15 24.2,8.9 	"/>
	<polygon class="st26" points="24.9,9.3 25.1,14.7 25.2,14.8 25,9.4 	"/>
	<polygon class="st26" points="21.5,9.7 23.3,9.4 25.1,10.4 25.1,10.6 23.4,10.8 21.4,10 	"/>
	<polygon class="st26" points="21.4,8.5 23.4,8.2 25.1,9.3 25,9.4 23.3,8.4 21.4,8.7 	"/>
	<polygon class="st26" points="23.4,13.5 21.1,16.8 21.1,16.5 23.2,13.1 23.4,13.1 	"/>
	<polygon class="st26" points="19.9,14.5 19.9,16.5 20,16.5 20,14.2 	"/>
	<polygon class="st26" points="21.1,14.5 21.2,16.5 21.3,16.5 21.3,14.4 	"/>
	<polygon class="st26" points="21,13.1 21.1,14.7 21.1,14.6 21.2,13 	"/>
	<polygon class="st26" points="22.2,13.1 22.2,14.7 22.4,14.7 22.3,12.9 	"/>
	<polygon class="st26" points="23.1,12.1 23.1,13.5 23.2,13.4 23.2,12 	"/>
	<polygon class="st26" points="21.5,11.9 22.2,11.9 22.3,13.1 22,13.1 22,12 21.5,12 	"/>
	<polygon class="st26" points="21.4,8.7 23.3,9.4 24.1,9 24.9,10.2 25,10.2 24.2,8.9 23.3,9.3 21.5,8.6 	"/>
	<polygon class="st26" points="21.5,9.6 23.2,8.3 23.4,8.4 24.2,9.8 24.9,9.3 25,9.4 24.2,10 23.2,8.5 21.5,9.7 	"/>
	<polygon class="st26" points="23.4,11.9 24.3,13.4 25.2,12.3 25,12.4 24.3,13.2 23.5,11.9 	"/>
	<polygon class="st26" points="23.5,13 24.2,12.1 24.5,12.2 25.1,13.3 25,13.4 24.3,12.3 23.6,13.2 	"/>
	<rect x="21.9" y="13.1" class="st26" width="1.5" height="0.1"/>
	<rect x="21.9" y="13.4" class="st26" width="1.5" height="0.1"/>
	<rect x="21.7" y="13.6" class="st26" width="1.5" height="0.1"/>
	<rect x="21.5" y="13.8" class="st26" width="1.5" height="0.1"/>
	<rect x="21.3" y="14.1" class="st26" width="1.5" height="0.1"/>
	<rect x="21.2" y="14.3" class="st26" width="1.5" height="0.1"/>
	<rect x="20.9" y="14.6" class="st26" width="1.5" height="0.1"/>
	<rect x="20.7" y="14.9" class="st26" width="1.5" height="0.1"/>
	<rect x="20.5" y="15.2" class="st26" width="1.5" height="0.1"/>
	<rect x="20.3" y="15.4" class="st26" width="1.5" height="0.1"/>
	<rect x="20" y="15.7" class="st26" width="1.5" height="0.1"/>
	<rect x="19.8" y="16.1" class="st26" width="1.5" height="0.1"/>
	<rect x="19.6" y="16.4" class="st26" width="1.5" height="0.1"/>
</g>
</svg>
